<?xml version="1.0" encoding="utf-8"?>
<!-- Generator: Adobe Illustrator 24.1.2, SVG Export Plug-In . SVG Version: 6.00 Build 0)  -->
<svg version="1.1" id="レイヤー_1" xmlns="http://www.w3.org/2000/svg" xmlns:xlink="http://www.w3.org/1999/xlink" x="0px"
	 y="0px" viewBox="0 0 256 256" style="enable-background:new 0 0 256 256;" xml:space="preserve">
<style type="text/css">
	.st0{fill:#FFFFFF;}
	.st1{fill:none;stroke:#1E1F28;stroke-width:12;stroke-miterlimit:10;}
	.st2{fill:#1E1F28;}
	.st3{stroke:#FFFFFF;stroke-width:5;stroke-linecap:round;stroke-miterlimit:10;}
	.st4{stroke:#FFFFFF;stroke-width:3;stroke-linecap:round;stroke-miterlimit:10;}
</style>
<g>
	<rect x="0.5" y="0.5" class="st0" width="255" height="255"/>
	<path d="M255,1v254H1V1H255 M256,0H0v256h256V0L256,0z"/>
</g>
<g>
	<line class="st1" x1="18" y1="12" x2="18" y2="76"/>
</g>
<line class="st1" x1="76" y1="18" x2="12" y2="18"/>
<line class="st1" x1="244" y1="18" x2="180" y2="18"/>
<g>
	<line class="st1" x1="238" y1="12" x2="238" y2="76"/>
</g>
<line class="st1" x1="76" y1="238" x2="12" y2="238"/>
<line class="st1" x1="244" y1="238" x2="180" y2="238"/>
<g>
	<line class="st1" x1="238" y1="180" x2="238" y2="244"/>
</g>
<g>
	<line class="st1" x1="18" y1="180" x2="18" y2="244"/>
</g>
<circle class="st1" cx="128" cy="128" r="64"/>
<circle class="st2" cx="128" cy="128" r="36"/>
<path class="st3" d="M120.5,104.5c-8,2-16,10-17,21"/>
<path class="st4" d="M-121.5,5.5"/>
</svg>
